<svg id="Capa_1" data-name="Capa 1" xmlns="http://www.w3.org/2000/svg" viewBox="0 0 585.47 528.11"><defs><style>.cls-1{fill-rule:evenodd;}</style></defs><title>Logo béke</title><path d="M93.1,565.63A24.74,24.74,0,0,1,103.78,568a28.4,28.4,0,0,1,8.68,6.28,29.64,29.64,0,0,1,5.88,9.31,30.87,30.87,0,0,1-5.88,32.31,27.93,27.93,0,0,1-8.68,6.34,24.74,24.74,0,0,1-10.68,2.34,25.37,25.37,0,0,1-10.62-2.23,26,26,0,0,1-8.56-6.22v6.4H64.1v-80h9.82v31.63a27.68,27.68,0,0,1,8.56-6.17A25,25,0,0,1,93.1,565.63Zm-.8,49.44a16.88,16.88,0,0,0,7.14-1.54,18,18,0,0,0,5.88-4.28,21.07,21.07,0,0,0,4-6.4,20.8,20.8,0,0,0-4-21.86,19.3,19.3,0,0,0-5.88-4.29,16.71,16.71,0,0,0-14.27,0A19.3,19.3,0,0,0,79.29,581a19.52,19.52,0,0,0-3.94,6.33,21.8,21.8,0,0,0,0,15.53,20.17,20.17,0,0,0,3.94,6.4,18,18,0,0,0,5.88,4.28A16.87,16.87,0,0,0,92.3,615.07Z" transform="translate(-64.1 -96.44)"/><path d="M139.35,597.72a22,22,0,0,0,2,6.85,19.28,19.28,0,0,0,3.88,5.48,18.56,18.56,0,0,0,5.37,3.65,15.37,15.37,0,0,0,6.45,1.37,18.48,18.48,0,0,0,9.54-2.51,19.82,19.82,0,0,0,6.91-6.74l8,5.14a29.32,29.32,0,0,1-10.28,9.88,27.72,27.72,0,0,1-14.16,3.71,25.09,25.09,0,0,1-10.1-2,27.45,27.45,0,0,1-8.4-5.66,30.18,30.18,0,0,1-8.79-19.12q0-.57-.06-1.26c0-.46,0-.91,0-1.37a27.79,27.79,0,0,1,.8-6.85,28.79,28.79,0,0,1,3.54-9,29.79,29.79,0,0,1,6-7.19,26.58,26.58,0,0,1,7.88-4.74,25.58,25.58,0,0,1,18.39,0,26.71,26.71,0,0,1,7.88,4.74,29.79,29.79,0,0,1,6,7.19,29,29,0,0,1,3.54,9,28.28,28.28,0,0,1,.8,6.85v1.37a7,7,0,0,1-.11,1.26Zm34.49-9.48a20.14,20.14,0,0,0-6.45-9.48,16.42,16.42,0,0,0-20.67,0,20,20,0,0,0-6.45,9.48Z" transform="translate(-64.1 -96.44)"/><path d="M249.55,622.5H236.87l-21-25.24L209,604.45v18H199.3V542.33H209v48l25.81-26.83,7,6.73-19.08,20Z" transform="translate(-64.1 -96.44)"/><path d="M258.11,597.72a22.31,22.31,0,0,0,2,6.85,19.11,19.11,0,0,0,3.89,5.48,18.38,18.38,0,0,0,5.36,3.65,15.37,15.37,0,0,0,6.45,1.37,18.48,18.48,0,0,0,9.54-2.51,19.82,19.82,0,0,0,6.91-6.74l8,5.14A29.32,29.32,0,0,1,290,620.84a27.72,27.72,0,0,1-14.16,3.71,25.12,25.12,0,0,1-10.1-2,27.45,27.45,0,0,1-8.4-5.66,30.18,30.18,0,0,1-8.79-19.12q0-.57-.06-1.26c0-.46-.05-.91-.05-1.37a27.79,27.79,0,0,1,.8-6.85,28.79,28.79,0,0,1,3.54-9,29.79,29.79,0,0,1,6-7.19,26.58,26.58,0,0,1,7.88-4.74,25.58,25.58,0,0,1,18.39,0,26.71,26.71,0,0,1,7.88,4.74,29.79,29.79,0,0,1,6,7.19,28.79,28.79,0,0,1,3.54,9,28.28,28.28,0,0,1,.8,6.85v1.37a7,7,0,0,1-.11,1.26Zm34.49-9.48a20,20,0,0,0-6.45-9.48,16.42,16.42,0,0,0-20.67,0,20,20,0,0,0-6.45,9.48Z" transform="translate(-64.1 -96.44)"/><path d="M390.58,584c.15.84.26,1.58.34,2.23A14.45,14.45,0,0,1,391,588V622.5h-9.7V590.06a31.35,31.35,0,0,0-.4-4.45,14.5,14.5,0,0,0-1.77-5,11.88,11.88,0,0,0-4.06-4.11,13.25,13.25,0,0,0-7.25-1.72,19.84,19.84,0,0,0-8.79,1.66,13.52,13.52,0,0,0-5,4,13.14,13.14,0,0,0-2.29,4.73,26.27,26.27,0,0,0-.68,3.77V622.5h-9.82V542.33h9.82v30.26a7.41,7.41,0,0,1,1.08-1.2,18,18,0,0,1,3.2-2.39,25.89,25.89,0,0,1,5.25-2.4,22.39,22.39,0,0,1,7.37-1.09,24.93,24.93,0,0,1,10.39,1.89,20.35,20.35,0,0,1,6.68,4.68,19,19,0,0,1,3.82,6A31.94,31.94,0,0,1,390.58,584Z" transform="translate(-64.1 -96.44)"/><path d="M433.17,624.55a29.33,29.33,0,0,1-20.9-8.56,30.26,30.26,0,0,1-6.33-9.37,29.31,29.31,0,0,1,0-23,29.83,29.83,0,0,1,15.7-15.7,29.31,29.31,0,0,1,22.95,0,29.83,29.83,0,0,1,15.7,15.7,29.31,29.31,0,0,1,0,23A30.26,30.26,0,0,1,454,616a29.45,29.45,0,0,1-9.37,6.28A28.89,28.89,0,0,1,433.17,624.55Zm0-49.45a19.69,19.69,0,0,0-7.76,1.55,18.39,18.39,0,0,0-6.28,4.28,20.84,20.84,0,0,0-4.17,6.39,20.35,20.35,0,0,0,0,15.53,20,20,0,0,0,4.17,6.34,19,19,0,0,0,6.28,4.23,19.86,19.86,0,0,0,7.76,1.54,19.51,19.51,0,0,0,7.71-1.54,20.06,20.06,0,0,0,10.51-26.1,20.47,20.47,0,0,0-4.23-6.39,19.47,19.47,0,0,0-14-5.83Z" transform="translate(-64.1 -96.44)"/><path d="M502,623.3l-1.83.57a17.38,17.38,0,0,1-3.71.62,20.1,20.1,0,0,1-4.91-.28,13.23,13.23,0,0,1-5.2-2.17q-7.65-5.14-7.65-19.3V577.16h-7v-9.48h7V542.33h9.48v25.35h11.42v9.48H488.21v25.58q0,9,3.43,11.42a4.74,4.74,0,0,0,2.22.8,14.21,14.21,0,0,0,2.23.06,10.69,10.69,0,0,0,2.51-.52Z" transform="translate(-64.1 -96.44)"/><path d="M518.47,597.72a22,22,0,0,0,2,6.85,19.28,19.28,0,0,0,3.88,5.48,18.56,18.56,0,0,0,5.37,3.65,15.37,15.37,0,0,0,6.45,1.37,18.48,18.48,0,0,0,9.54-2.51,19.9,19.9,0,0,0,6.91-6.74l8,5.14a29.4,29.4,0,0,1-10.28,9.88,27.72,27.72,0,0,1-14.16,3.71,25.06,25.06,0,0,1-10.1-2,27.45,27.45,0,0,1-8.4-5.66,30.18,30.18,0,0,1-8.79-19.12q0-.57-.06-1.26c0-.46-.05-.91-.05-1.37a27.79,27.79,0,0,1,.8-6.85,28.79,28.79,0,0,1,3.54-9,29.79,29.79,0,0,1,6-7.19,26.58,26.58,0,0,1,7.88-4.74,25.58,25.58,0,0,1,18.39,0,26.66,26.66,0,0,1,7.87,4.74,29.83,29.83,0,0,1,6,7.19,29.28,29.28,0,0,1,3.54,9,28.28,28.28,0,0,1,.8,6.85v1.37a6.13,6.13,0,0,1-.12,1.26ZM553,588.24a20.14,20.14,0,0,0-6.45-9.48,16.42,16.42,0,0,0-20.67,0,20,20,0,0,0-6.45,9.48Z" transform="translate(-64.1 -96.44)"/><path d="M578.42,622.5V542.33h9.71V622.5Z" transform="translate(-64.1 -96.44)"/><path d="M626.27,589c2.06.45,4.41,1,7.08,1.71a31.36,31.36,0,0,1,7.59,3,19.32,19.32,0,0,1,6.11,5.31,13.54,13.54,0,0,1,2.52,8.45,14.42,14.42,0,0,1-6.46,12.5q-6.45,4.51-17.87,4.51a33.37,33.37,0,0,1-7.76-.86,26.6,26.6,0,0,1-6.63-2.45,25.45,25.45,0,0,1-5.25-3.71,14.11,14.11,0,0,1-3.42-4.74l8.67-3.08a12.64,12.64,0,0,0,5.49,3.76,23.09,23.09,0,0,0,8.9,1.6c1.15,0,2.51-.07,4.11-.23a19.05,19.05,0,0,0,4.63-1,11.09,11.09,0,0,0,3.82-2.29,5.17,5.17,0,0,0,1.6-4,7.89,7.89,0,0,0-.34-2.29,4.93,4.93,0,0,0-1.77-2.28,17.27,17.27,0,0,0-4.45-2.29,60.31,60.31,0,0,0-8.51-2.28q-3.76-.79-7.59-1.77a25.12,25.12,0,0,1-6.86-2.8,16,16,0,0,1-5-4.62,12.21,12.21,0,0,1-1.95-7.14,14.54,14.54,0,0,1,5.71-11.88q5.72-4.56,15.76-4.56a34,34,0,0,1,7.48.8,26.59,26.59,0,0,1,6.57,2.34,22.5,22.5,0,0,1,5.2,3.65,13.2,13.2,0,0,1,3.25,4.74l-8.68,3.08a9.71,9.71,0,0,0-4.85-3.71,20.85,20.85,0,0,0-7.94-1.43q-5.82,0-9.08,1.95c-2.17,1.29-3.25,3-3.25,5a5.89,5.89,0,0,0,.28,1.88,3.43,3.43,0,0,0,1.54,1.66,18.09,18.09,0,0,0,3.95,1.66A68.48,68.48,0,0,0,626.27,589Z" transform="translate(-64.1 -96.44)"/><path d="M150.26,557.86l15.19-11,7.92,1.77,9,16.45-8.58-1.92L168.28,553l-9.34,6.79Z" transform="translate(-64.1 -96.44)"/><rect x="448.52" width="26.31" height="354.5"/><rect x="110.64" width="26.31" height="354.5"/><rect x="403.99" y="110.94" width="26.31" height="53.46"/><rect x="403.99" y="190.11" width="26.31" height="53.46"/><path class="cls-1" d="M479.78,286.55h-33.1c1.08,1.85,2.23,3.66,3.34,5.42,4.4,7,9,13.67,12.05,21.53A68,68,0,0,1,466,348.91a102.39,102.39,0,0,1-5.21,21c-12.6,33.25-38.39,51.32-73.8,52.81-32.91,1.36-103.11.27-136.09.27a14.84,14.84,0,0,1-3.11-.81V315.12h26.67v80.1H381.78c32.09-.07,56.53-23.09,57-53.63s-23.56-54.29-55.72-55H219.56V450.33c2.5.2,4.47.47,6.36.47,41.44,0,120,.41,161.34-.13,69-.95,120.51-67,104.06-133.92C488.68,306.24,484.25,296.35,479.78,286.55ZM303.31,314.31c17.13,0,70.95-1.08,87.47.34,12.05,1,20.24,13.74,19.77,26.4-.47,12.19-9.89,23.83-22.14,24.58-15.77.95-68.79.2-85.1.2Z" transform="translate(-64.1 -96.44)"/><path class="cls-1" d="M491.28,230.64c16.45-67-35.07-133-104.06-133.91-41.37-.55-119.91-.14-161.34-.14-1.9,0-3.86.27-6.37.47V260.84H383c32.16-.74,56.13-24.58,55.72-55s-24.91-53.56-57-53.63H274.42v80.1H247.75V125.16a14.84,14.84,0,0,1,3.11-.81c33,0,103.18-1.08,136.09.27,35.41,1.49,61.2,19.57,73.79,52.81a101.78,101.78,0,0,1,5.22,21A68.05,68.05,0,0,1,462,233.89c-3,7.86-7.65,14.49-12,21.53-1.12,1.76-2.26,3.57-3.34,5.42h33.09C484.21,251,488.64,241.15,491.28,230.64Zm-188-49.08c16.32,0,69.33-.75,85.11.2,12.25.75,21.66,12.39,22.14,24.58.47,12.66-7.72,25.39-19.77,26.4-16.52,1.43-70.35.34-87.48.34Z" transform="translate(-64.1 -96.44)"/></svg>