<?xml version="1.0" encoding="iso-8859-1"?>
<!-- Generator: Adobe Illustrator 19.0.0, SVG Export Plug-In . SVG Version: 6.00 Build 0)  -->
<svg version="1.1" id="Capa_1" xmlns="http://www.w3.org/2000/svg" xmlns:xlink="http://www.w3.org/1999/xlink" x="0px" y="0px"
	 viewBox="0 0 482.133 482.133" style="enable-background:new 0 0 482.133 482.133;" xml:space="preserve">
<g>
	<g>
		<path d="M445.867,198.656c-17.067,29.867-57.6,40.533-87.467,23.467c-10.667-6.4-17.067-12.8-23.467-23.467
			c-8.533-12.8-29.867-12.8-38.4,0c-17.067,29.867-57.6,40.533-87.467,23.467c-10.667-6.4-17.067-12.8-23.467-23.467
			c-8.533-12.8-29.867-12.8-38.4,0c-17.067,29.867-57.6,40.533-87.467,23.467c-10.667-6.4-17.067-12.8-23.467-23.467L0,219.989
			c19.2,32,53.333,53.333,91.733,53.333c27.733,0,55.467-12.8,74.667-32c40.533,40.533,106.667,42.667,147.2,2.133
			c0,0,0,0,2.133-2.133c42.667,40.533,108.8,40.533,151.467-2.133c6.4-6.4,10.667-12.8,14.933-19.2L445.867,198.656z"/>
	</g>
</g>
<g>
	<g>
		<path d="M445.867,347.989c-10.667,19.2-32,32-55.467,32s-44.8-12.8-55.467-32c-8.533-12.8-29.867-12.8-38.4,0
			c-17.067,29.867-57.6,40.533-87.467,23.467c-10.667-6.4-17.067-12.8-23.467-23.467c-8.533-12.8-29.867-12.8-38.4,0
			c-17.067,29.867-57.6,40.533-87.467,23.467c-10.667-6.4-17.067-12.8-23.467-23.467L0,369.323c29.867,51.2,96,66.133,147.2,36.267
			c6.4-4.267,14.933-8.533,19.2-14.933c40.533,40.533,106.667,42.667,147.2,2.133c0,0,0,0,2.133-2.133
			c42.667,40.533,108.8,40.533,151.467-2.133c6.4-6.4,10.667-12.8,14.933-19.2L445.867,347.989z"/>
	</g>
</g>
<g>
	<g>
		<circle cx="241.067" cy="123.99" r="21.333"/>
	</g>
</g>
<g>
	<g>
		<circle cx="390.4" cy="166.656" r="21.333"/>
	</g>
</g>
<g>
	<g>
		<circle cx="369.067" cy="81.323" r="21.333"/>
	</g>
</g>
<g>
</g>
<g>
</g>
<g>
</g>
<g>
</g>
<g>
</g>
<g>
</g>
<g>
</g>
<g>
</g>
<g>
</g>
<g>
</g>
<g>
</g>
<g>
</g>
<g>
</g>
<g>
</g>
<g>
</g>
</svg>
