<svg id="Layer_1" enable-background="new 0 0 511.999 511.999" height="512" viewBox="0 0 511.999 511.999" width="512" xmlns="http://www.w3.org/2000/svg"><g><path d="m381.141 288.406c118.78-126.472 131.244-218.024 130.849-252.615-.226-19.629-16.149-35.557-35.783-35.783-36.367-.373-135.755 13.378-272.501 150.122-75.706 75.706-149.58 177.979-200.423 268.891-9.472 16.939 2.62 38.46 22.574 38.46 15.802 0 28.658 12.856 28.658 28.658 0 19.947 21.51 32.052 38.46 22.575 117.366-65.638 229.873-156.101 288.166-220.308zm-280.567 8.846c77.234-54.911 213.568-24.743 305.139-61.254-10.91 13.495-22.755 27.066-35.524 40.695-76.997 44.427-207.355 14.997-295.377 57.364 7.933-11.724 16.536-24.064 25.762-36.805zm283.919-259.113c43.498-19.101 74.751-22.141 90.218-22.141 2.796 0 5.247.138 8.525 1.448l-191.423 191.424c-3.124 3.125-3.124 8.189 0 11.314 3.126 3.124 8.189 3.123 11.314 0l191.423-191.423c.909 2.273 1.412 4.707 1.442 7.213.653 57.163-33.977 122.835-67.197 169.639-74.473 53.016-211.244 21.856-305.345 60.98 67.378-87.602 160.216-184.178 261.043-228.454zm-299.327 456.611c-6.511 3.64-14.65-1.074-14.65-8.61 0-24.625-20.034-44.658-44.658-44.658-7.524 0-12.255-8.131-8.609-14.649 6.594-11.791 18.944-33.19 36.223-60.289 69.476-58.278 196.328-32.706 287.737-60.359-101.96 99.04-221.127 169.038-256.043 188.565z"/><path d="m122.94 377.743-51.396 51.396c-3.125 3.125-3.125 8.189 0 11.314 3.125 3.124 8.189 3.123 11.313 0l51.396-51.396c3.125-3.125 3.125-8.189 0-11.314-3.123-3.123-8.189-3.123-11.313 0z"/></g></svg>