<svg id="Capa_1" enable-background="new 0 0 512.002 512.002" height="512" viewBox="0 0 512.002 512.002" width="512" xmlns="http://www.w3.org/2000/svg"><g><path d="m497.057 278.574h-295.959c-.979-7.333-7.221-12.994-14.795-12.994h-80.857c-7.574 0-13.816 5.66-14.795 12.994h-29.918v-221.89c0-14.714 11.925-26.684 26.584-26.684 11.371 0 21.482 7.257 25.151 18.041l5.396 15.927c-26.401 15.073-40.129 46.898-31.27 77.417l4.439 15.296c2.082 7.769 10.865 12.616 18.528 10.206l100.218-29.31c3.805-1.113 7.014-3.698 8.921-7.186 1.907-3.487 2.355-7.593 1.246-11.412l-4.44-15.296c-8.976-30.921-38.229-50.476-69.007-48.373l-5.741-16.946c-7.808-22.947-29.284-38.364-53.441-38.364-31.139 0-56.472 25.428-56.472 56.684v221.89h-15.9c-8.253 0-14.944 6.716-14.944 15v49.533c0 6.885 4.62 12.686 10.919 14.45v43.207c0 34.901 22.043 64.727 52.887 76.201l-7.739 11.776c-4.546 6.915-2.644 16.219 4.245 20.781 2.535 1.678 5.39 2.48 8.215 2.48 4.854 0 9.615-2.37 12.487-6.742l15.287-23.26h319.398l15.287 23.26c2.873 4.372 7.634 6.742 12.487 6.742 2.824 0 5.682-.803 8.215-2.48 6.889-4.562 8.79-13.866 4.245-20.781l-7.739-11.776c30.844-11.474 52.887-41.3 52.887-76.201v-43.207c6.299-1.764 10.919-7.565 10.919-14.45v-49.533c0-8.284-6.691-15-14.944-15zm-310.246-166.499.26.895-71.522 20.918-.26-.895c-5.746-19.793 5.623-40.587 25.342-46.354 3.465-1.014 6.962-1.497 10.403-1.497 16.135 0 31.042 10.619 35.777 26.933zm-66.421 183.505h50.969v96.966h-50.969zm361.723 37.31c-6.603 4.708-10.919 12.446-10.919 21.177v46.697c0 28.252-22.899 51.237-51.045 51.237h-328.296c-28.146 0-51.045-22.985-51.045-51.237v-46.697c0-8.73-4.316-16.469-10.919-21.177v-24.316h60.614v98.972c0 8.284 6.691 15 14.944 15h80.857c8.253 0 14.944-6.716 14.944-15v-98.972h280.866v24.316z"/></g></svg>