<?xml version="1.0" encoding="iso-8859-1"?>
<!-- Generator: Adobe Illustrator 19.0.0, SVG Export Plug-In . SVG Version: 6.00 Build 0)  -->
<svg version="1.1" id="Capa_1" xmlns="http://www.w3.org/2000/svg" xmlns:xlink="http://www.w3.org/1999/xlink" x="0px" y="0px"
	 viewBox="0 0 512 512" style="enable-background:new 0 0 512 512;" xml:space="preserve">
<g>
	<g>
		<path d="M481.559,354.441c-2.497-9.318-8.241-17.208-16.274-22.422c4.814-3.252,8.822-7.547,11.785-12.678
			c6.061-10.504,6.84-23.426,2.08-34.567c-8.381-19.625-31.167-28.773-50.794-20.392l-46.049,19.668l-49.246-28.432l49.246-28.431
			l46.05,19.667c19.623,8.38,42.413-0.767,50.793-20.392c4.061-9.508,4.176-20.027,0.323-29.621
			c-2.917-7.265-7.841-13.338-14.189-17.623c8.033-5.212,13.777-13.103,16.275-22.422c2.675-9.987,1.303-20.416-3.867-29.371
			c-10.326-17.881-32.867-24.412-51.057-15.149c-0.409-5.796-2.125-11.412-5.087-16.544c-6.065-10.501-16.867-17.637-28.896-19.088
			c-21.187-2.556-40.503,12.606-43.057,33.793l-5.992,49.715l-49.245,28.431v-56.094l40.056-30.048
			c17.07-12.804,20.541-37.111,7.737-54.185c-11.29-15.049-31.517-19.529-47.847-11.605C293.231,16.26,276.305,0,255.654,0
			c-20.649,0-37.573,16.255-38.649,36.641c-6.884-3.354-14.606-4.586-22.357-3.476c-10.234,1.461-19.287,6.82-25.49,15.09
			c-6.203,8.27-8.816,18.461-7.354,28.695c1.461,10.234,6.821,19.287,15.09,25.49l40.056,30.047v56.093l-48.577-28.047
			l-5.993-49.715c-2.555-21.186-21.873-36.337-43.058-33.792c-18.679,2.252-32.673,17.53-33.974,35.634
			c-18.194-9.266-40.738-2.737-51.065,15.146c-10.325,17.883-4.71,40.667,12.408,51.792c-6.347,4.285-11.273,10.358-14.19,17.623
			c-3.852,9.594-3.737,20.115,0.323,29.62c8.382,19.626,31.167,28.774,50.795,20.393l46.048-19.667l48.578,28.046l-48.577,28.046
			l-46.05-19.667c-19.625-8.382-42.411,0.767-50.794,20.393c-7.388,17.302-1.153,37.06,13.874,47.24
			c-17.123,11.122-22.741,33.909-12.415,51.795c10.325,17.882,32.864,24.412,51.057,15.15c0.537,7.639,3.334,14.943,8.168,21.1
			c6.383,8.133,15.55,13.294,25.814,14.531c10.264,1.234,20.394-1.598,28.527-7.98c8.133-6.383,13.293-15.551,14.53-25.815
			l5.993-49.713l48.577-28.046v56.864l-40.056,30.047c-8.269,6.203-13.629,15.255-15.09,25.49
			c-1.461,10.234,1.151,20.425,7.353,28.694c6.204,8.271,15.256,13.63,25.492,15.091c7.749,1.11,15.474-0.123,22.357-3.476
			c1.076,20.386,18,36.641,38.65,36.641c20.65,0,37.573-16.255,38.651-36.639c5.223,2.545,10.946,3.867,16.87,3.867
			c12.126-0.002,23.708-5.789,30.978-15.482c12.803-17.072,9.332-41.379-7.738-54.184l-40.057-30.047v-56.864l49.246,28.431
			l5.992,49.713c1.238,10.265,6.399,19.432,14.531,25.816c8.132,6.383,18.265,9.219,28.527,7.979
			c10.265-1.238,19.432-6.399,25.815-14.531c4.832-6.157,7.63-13.461,8.168-21.099c8.531,4.349,18.237,5.377,27.555,2.881
			c9.986-2.676,18.332-9.08,23.5-18.032C482.861,374.856,484.234,364.427,481.559,354.441z M451.536,368.704
			c-1.136,1.967-2.968,3.374-5.161,3.961c-2.193,0.589-4.484,0.287-6.45-0.849l-23.579-13.612c-4.954-2.86-11.1-2.676-15.872,0.476
			c-4.773,3.151-7.356,8.729-6.672,14.409l2.66,22.056c0.273,2.254-0.349,4.479-1.752,6.265c-1.402,1.786-3.416,2.92-5.671,3.191
			c-2.257,0.276-4.48-0.349-6.266-1.752c-1.786-1.402-2.92-3.417-3.191-5.671l-6.896-57.208c-0.57-4.719-3.326-8.895-7.443-11.27
			l-78.436-45.284c-4.672-2.698-10.429-2.697-15.101,0c-4.672,2.697-7.551,7.682-7.551,13.077v90.569
			c0,4.753,2.238,9.229,6.039,12.08l46.096,34.577c3.749,2.813,4.511,8.152,1.699,11.902c-1.621,2.162-4.108,3.402-6.82,3.402
			c-1.284,0-3.207-0.295-5.082-1.701l-17.771-13.33c-4.577-3.433-10.697-3.984-15.815-1.428c-5.116,2.558-8.348,7.787-8.348,13.507
			v27.226c0,4.686-3.813,8.5-8.501,8.5c-4.687,0-8.501-3.813-8.501-8.5v-27.226c0-5.72-3.232-10.949-8.348-13.507
			c-2.137-1.068-4.449-1.594-6.751-1.594c-3.209,0-6.399,1.023-9.067,3.029l-17.77,13.329c-1.817,1.362-4.056,1.939-6.303,1.615
			c-2.247-0.32-4.235-1.497-5.598-3.314c-1.362-1.817-1.936-4.055-1.615-6.303c0.32-2.248,1.497-4.236,3.314-5.599l46.095-34.577
			c3.801-2.852,6.039-7.327,6.039-12.08v-90.569c0-5.395-2.878-10.379-7.551-13.078c-4.672-2.698-10.429-2.698-15.101,0
			l-77.767,44.899c-4.115,2.376-6.873,6.551-7.442,11.27l-6.897,57.208c-0.272,2.254-1.405,4.269-3.191,5.671
			c-1.787,1.401-4.013,2.027-6.266,1.752c-2.254-0.272-4.268-1.405-5.67-3.191c-1.401-1.787-2.024-4.011-1.752-6.266l2.659-22.056
			c0.685-5.679-1.899-11.257-6.672-14.409c-4.774-3.152-10.917-3.337-15.871-0.476l-23.578,13.612
			c-4.059,2.343-9.269,0.948-11.613-3.112c-2.344-4.059-0.947-9.268,3.112-11.612l23.578-13.612
			c4.953-2.86,7.866-8.273,7.523-13.984c-0.343-5.709-3.883-10.737-9.143-12.983l-20.43-8.725c-4.312-1.84-6.321-6.847-4.48-11.157
			c1.842-4.312,6.846-6.322,11.158-4.479l52.994,22.631c4.37,1.865,9.365,1.565,13.481-0.81l77.767-44.899
			c4.672-2.697,7.551-7.682,7.551-13.078c0-5.395-2.878-10.379-7.551-13.078l-77.768-44.899c-4.118-2.379-9.113-2.677-13.482-0.81
			l-52.991,22.631c-4.312,1.843-9.316-0.167-11.158-4.479c-0.892-2.088-0.917-4.398-0.071-6.506c0.847-2.108,2.462-3.758,4.551-4.65
			l20.43-8.725c5.261-2.248,8.8-7.274,9.143-12.983c0.342-5.71-2.57-11.123-7.523-13.984l-23.578-13.612
			c-4.059-2.344-5.456-7.554-3.112-11.613c2.344-4.059,7.553-5.455,11.612-3.112l23.578,13.613
			c4.954,2.859,11.098,2.676,15.872-0.476c4.774-3.152,7.356-8.73,6.672-14.409l-2.659-22.056c-0.561-4.655,2.769-8.898,7.422-9.458
			c4.65-0.559,8.898,2.769,9.459,7.422l6.896,57.21c0.569,4.719,3.326,8.895,7.442,11.27l77.767,44.899
			c4.672,2.698,10.429,2.698,15.101,0c4.672-2.697,7.551-7.682,7.551-13.078v-89.799c0-4.753-2.238-9.228-6.039-12.08
			l-46.095-34.577c-1.816-1.363-2.993-3.352-3.314-5.599c-0.321-2.249,0.253-4.486,1.616-6.304c1.362-1.816,3.35-2.993,5.599-3.314
			c2.25-0.32,4.486,0.253,6.302,1.615l17.771,13.33c4.575,3.433,10.699,3.984,15.814,1.428c5.116-2.558,8.348-7.787,8.348-13.507
			V38.702c0-4.686,3.813-8.5,8.501-8.5c4.687,0,8.501,3.814,8.501,8.5v27.222c0,5.72,3.232,10.949,8.348,13.507
			c5.118,2.556,11.24,2.003,15.815-1.428l17.771-13.329c3.748-2.813,9.088-2.051,11.901,1.698c2.812,3.75,2.051,9.09-1.699,11.903
			l-46.096,34.577c-3.801,2.851-6.039,7.327-6.039,12.08v89.799c0,5.395,2.878,10.379,7.551,13.078
			c4.672,2.698,10.429,2.698,15.101,0l78.436-45.284c4.117-2.376,6.874-6.551,7.443-11.27l6.896-57.209
			c0.561-4.654,4.799-7.999,9.457-7.423c2.684,0.324,4.999,1.856,6.355,4.204c0.642,1.112,1.349,2.926,1.068,5.253l-2.66,22.056
			c-0.685,5.679,1.899,11.257,6.672,14.409c4.773,3.152,10.918,3.336,15.872,0.476l23.579-13.613
			c4.056-2.342,9.268-0.947,11.613,3.112c1.136,1.966,1.437,4.256,0.849,6.45c-0.587,2.194-1.994,4.027-3.961,5.163l-23.578,13.612
			c-4.954,2.86-7.867,8.273-7.523,13.984c0.342,5.709,3.882,10.736,9.142,12.983l20.431,8.725c2.089,0.892,3.704,2.543,4.549,4.65
			c0.847,2.107,0.823,4.418-0.07,6.507c-1.841,4.309-6.847,6.319-11.157,4.478l-52.993-22.631c-4.372-1.866-9.366-1.565-13.482,0.81
			l-78.436,45.284c-4.672,2.697-7.551,7.682-7.551,13.078c0,5.395,2.878,10.379,7.551,13.078l78.436,45.285
			c4.116,2.378,9.109,2.677,13.482,0.81l52.992-22.632c4.306-1.841,9.316,0.168,11.158,4.479c1.062,2.485,0.892,5.258-0.463,7.606
			c-0.641,1.111-1.859,2.631-4.016,3.551l-20.43,8.725c-5.26,2.248-8.8,7.274-9.142,12.983c-0.342,5.71,2.569,11.123,7.523,13.984
			l23.578,13.612c1.967,1.136,3.374,2.969,3.962,5.162S452.671,366.737,451.536,368.704z"/>
	</g>
</g>
<g>
</g>
<g>
</g>
<g>
</g>
<g>
</g>
<g>
</g>
<g>
</g>
<g>
</g>
<g>
</g>
<g>
</g>
<g>
</g>
<g>
</g>
<g>
</g>
<g>
</g>
<g>
</g>
<g>
</g>
</svg>
