<svg id="Layer_1" height="512" viewBox="0 0 75 75" width="512" xmlns="http://www.w3.org/2000/svg" data-name="Layer 1"><path d="m25.646 40.885a12.9 12.9 0 1 1 1.777-25.672l29.5 4.1a.752.752 0 0 1 .646.744v15.861a.751.751 0 0 1 -.646.743l-29.5 4.1a12.977 12.977 0 0 1 -1.777.124zm0-24.295a11.4 11.4 0 1 0 1.571 22.685l28.855-4.01v-14.555l-28.856-4.01a11.386 11.386 0 0 0 -1.571-.11z"/><path d="m58.99 36.668h-2.169a.75.75 0 0 1 -.75-.75v-15.861a.75.75 0 0 1 .75-.75h2.169a3.263 3.263 0 0 1 3.26 3.259v10.842a3.263 3.263 0 0 1 -3.26 3.26zm-1.419-1.5h1.419a1.761 1.761 0 0 0 1.76-1.76v-10.842a1.761 1.761 0 0 0 -1.76-1.759h-1.419z"/><path d="m25.6 35.76a7.773 7.773 0 1 1 7.772-7.773 7.782 7.782 0 0 1 -7.772 7.773zm0-14.045a6.273 6.273 0 1 0 6.272 6.272 6.279 6.279 0 0 0 -6.272-6.272z"/><path d="m27.9 59.912h-3.811a3.206 3.206 0 0 1 -3.18-2.694l-3.5-19.536a.756.756 0 1 1 1.5-.133v.009l3.48 19.406a1.713 1.713 0 0 0 1.7 1.448h3.811a1.722 1.722 0 0 0 1.32-.612 1.744 1.744 0 0 0 .383-1.421l-2.703-16.279a.751.751 0 1 1 1.481-.246l2.7 16.276a3.231 3.231 0 0 1 -3.181 3.782z"/><path d="m29.134 47.885a.75.75 0 0 1 -.184-1.477l1.941-.494-.391-2.072-2.635-.7a.75.75 0 0 1 .385-1.45l3.091.822a.752.752 0 0 1 .545.585l.612 3.228a.749.749 0 0 1 -.553.866l-2.624.668a.734.734 0 0 1 -.187.024z"/><path d="m31.7 25.274h-12.2a.75.75 0 0 1 0-1.5h12.2a.75.75 0 0 1 0 1.5z"/><path d="m32.618 28.734h-14.04a.75.75 0 1 1 0-1.5h14.04a.75.75 0 0 1 0 1.5z"/><path d="m31.7 32.2h-12.2a.75.75 0 1 1 0-1.5h12.2a.75.75 0 0 1 0 1.5z"/></svg>