<svg version="1.1" id="Capa_1" xmlns="http://www.w3.org/2000/svg" xmlns:xlink="http://www.w3.org/1999/xlink" x="0px" y="0px"
	 viewBox="0 0 300 300" style="enable-background:new 0 0 300 300;" xml:space="preserve">
<style type="text/css">
	.st0{fill-rule:evenodd;clip-rule:evenodd;fill:#ffffff;}
</style>
<title>LogosHotelesBeke-Alexis</title>
<g>
	<g>
		<path class="st0" d="M57.7,151.9c0,0-2.7-0.8-3.9,1.5c0,0-0.7,0.9-0.7,2.6c0,2.8,1.6,4.3,4.1,4.1c2.5-0.2,3.2-1.9,3.2-4.8
			S57.7,151.9,57.7,151.9z M57.1,157.9c-0.8,0-1.6-0.6-1.6-2.3c0-0.9,1.1-1.7,1.8-1.6c0.7,0.1,1.5,0.5,1.4,1.8
			C58.5,157.2,57.9,157.9,57.1,157.9z"/>
		<path class="st0" d="M84.6,164.7c2.9-6.6,2.5-28.7,1.6-33.7c-0.8-5-1-6.5-6.6-11.4c-5.6-4.8-14.4-6-31.7-5.7s-23.1,1.4-29.9,7.1
			c-6.7,5.7-6.6,19.4-6.6,19.4s-0.1,2.8,0.5,14.4c0.6,11.6,7.7,17.8,7.7,17.8s-4.6,2.8-4.3,8.2c0.3,5.4,0.4,9.7,8.9,13.2
			c8.5,3.5,14.1-2,14.1-2s2.1,2.9,10,3.4c7.9,0.6,12.3-3.4,12.3-3.4c4.1,4.7,13.4,2.7,16.2,1.1c2.8-1.6,6.3-5.2,6.6-11.9
			c0.3-6.6-3.9-8.9-3.9-8.9S81.8,171.3,84.6,164.7z M75.1,124.4c0,0,1.2,1.5,0.2,4.6c-0.3,0.9-4.5-1.9-4.3-3L75.1,124.4z
			 M71.9,128.5c3,2.6,1.9,5.5,0.5,6.1c0,0-4.2-3-6.9-6.4C65.5,128.3,68.9,125.9,71.9,128.5z M64.1,128c0.4,0.2,0.2,2.1,3.6,4.6
			c3.5,2.5,4.2,4.9,3.2,7.3c0,0-7.5-5.1-10-10.9C61,128.9,63.8,127.8,64.1,128z M49.1,129.9c0,0,1.9,0.3,1.8,2c-0.1,1.7-1.4,2-2,2
			c-0.6,0-1.6-0.3-1.6-1.8C47.3,130.6,48.5,129.9,49.1,129.9z M37.2,184.5c0,0-0.2,7-5.9,7.1c-5.7,0.1-10.2-2.5-11.4-4.4
			c-1.2-1.9-1.4-2.8-1.4-6.6c0-2.9,1-6,5.5-6.1c4.4-0.1,5.4,1.8,5.5,4.1c0.1,2.3-1.7,3.3-2.3,3c0,0,1.6-2.9-1.4-3.2
			c-2.7-0.3-3.5,3.4-3.4,4.8c0.1,1.3,0.7,5.2,5.9,5.2c5.6,0,6.5-2.3,7.1-6.4c0.2-1.3,0-5.2,0-5.2h1.8V184.5z M31.3,176.1
			c2.4-0.4,2.4,3.3,2.3,5.2c-0.3,4.6-3.2,5.1-5.2,5c-2-0.1-3.8-0.7-4.1-3.4c-0.3-2.7,2.1-2.7,2.1-2.7s-1.9,4.3,2,3.4
			C32.9,182.6,31.3,176.1,31.3,176.1z M57.7,189.8c-3.2,3.7-14.5,2.2-16.6,0.2c-2.2-2-1.9-10.3-1.1-12.8c0,0,2.4-0.1,3,0.2
			c0.5,0.4,0.4,0.5,0.4,0.5s-1.7,8.2,6.2,8.2c7.9,0,6.4-8.6,6.4-8.6s2.7-0.7,3-0.2C59.2,177.7,61,186.1,57.7,189.8z M48.6,181.6
			c1.8,0.2,2.5-0.1,3-1.4c0.5-1.2,0.7-2.7,0.7-2.7h1.6c0,0,0.5,5-1.8,5.9c-2.3,0.9-4.8,0.5-5.7-0.5c-0.8-0.9-1.4-1.8-1.4-3.4v-2
			c0,0,1.6-0.2,1.8,0C47.1,177.7,46.9,181.4,48.6,181.6z M48.6,177.5c0,0,0.4-0.1,0.5,0.9c0.1,1,1.1,0.8,0.9-0.7
			c0-0.2,0.4-0.5,0.7,0c0.2,0.5,0.2,2.4-1.1,2.5C48.3,180.3,47.6,178.1,48.6,177.5z M43.3,168c-5.1,0.3-20.4-1.3-21.8-8.1
			c-0.5-2.6,26-1.6,27.1-10.5c0.5-3.5-5.1-8.4-7.5-3.2c0,0,5.4-1.5,4.5,2c-0.9,3.6-2.5,6.6-20.7,7.3c0,0,8.9-8.9,13.9-19.6
			c2.8-6,7.7-7.3,7.7-7.3s0.5,0.8-0.1,2.3c-0.6,1.4-1.6,3.5,1.9,4.1c3.3,0.6,5.2-4.4,3.2-5.7c-0.2-0.1-0.9-0.9-0.9-0.9
			s2.8-0.4,4.3,0.2c1.5,0.6,3-0.2,3-0.2s9.6,11.6,12.5,13c0,0,1.7,7.1,0.7,7.5c-1,0.4-2.4-1.4-2.5-3.2c-0.1-1.7-3.2-1.5-3.9-0.9
			c-0.7,0.6-1.4,1.6-1.4,2.5c0,0.9,1.7,3.8,3.2,4.1c0,0-0.2,3.7,3.9,5.7C70.5,157.2,64.1,166.8,43.3,168z M71.4,153.3
			c0.1,2.4-2.6,1.5-2.7,0.2c-0.1-1.3,0.1-2.3,1.4-2.5C70.1,151,71.3,151,71.4,153.3z M66,149.4c0,0-1.5-1.2-0.9-2.7
			c0,0,2.3-1,2.7,0.9C68.2,149.5,66,149.4,66,149.4z M72.6,180.2c0,0,2.3,0,2.1,2.7c-0.3,2.8-2.1,3.4-4.1,3.4c-2,0-4.9-0.5-5.2-5
			c-0.1-2-0.2-5.6,2.3-5.2c0,0-1.6,6.5,3,7.5C74.5,184.5,72.6,180.2,72.6,180.2z M80.3,180.7c0,3.8-0.2,4.7-1.4,6.6
			c-1.2,1.9-5.7,4.4-11.4,4.4c-5.7-0.1-5.9-7.1-5.9-7.1v-7.7h1.8c0,0-0.2,4,0,5.2c0.6,4.1,1.5,6.4,7.1,6.4c5.2,0,5.8-3.9,5.9-5.2
			c0.1-1.4-0.7-5.1-3.4-4.8c-3,0.3-1.4,3.2-1.4,3.2c-0.6,0.4-2.4-0.7-2.3-3c0.1-2.3,1-4.2,5.5-4.1C79.3,174.6,80.3,177.8,80.3,180.7
			z"/>
		<path class="st0" d="M55,138.7c0,0,3,0.6,3.2-3.2c0.1-3.8-2.5-3.6-2.5-3.6c-1.4,0.1-2.9,1-3,3.6C52.7,138.3,55,138.7,55,138.7z
			 M55.7,133c0,0,1.7,0.5,1.6,2.3c-0.1,1.8-1.6,1.8-1.6,1.8s-1.9,0.2-1.8-2.3C53.9,133.1,55.7,133,55.7,133z"/>
		<path class="st0" d="M65.1,141.3c0.3-2.8-2.3-3.4-3-3.4c-0.7,0-3.5,0.7-3.6,3c-0.2,2.2,3,3.4,4.3,3.4
			C64.1,144.2,64.8,144.1,65.1,141.3z M63.7,141.7c-0.3,1.3-2.2,1.1-3.2,0c-1-1.1,0.8-2.5,1.8-2.7C62.3,139,64,140.4,63.7,141.7z"/>
		<path class="st0" d="M32.7,159.3c0,0-3.1,0-3.2,2.5c-0.1,2.5,2.2,2.9,3,3c0.7,0.1,3-0.5,3.4-2.7C36.2,159.7,32.7,159.3,32.7,159.3
			z M34.5,162c-0.3,1.6-1.2,1.8-2.3,1.8c-1.1,0-1.7-0.5-1.6-2c0.1-1.6,2.1-1.5,2.1-1.6C32.7,160.1,34.8,160.3,34.5,162z"/>
		<path class="st0" d="M45.9,156.5c-1.8,0.2-3.7,1.3-3.6,3.6c0.1,2.4,2,3.2,3.4,3.2c1.4,0,3.4-0.7,3.4-3.6
			C49.2,156.7,45.9,156.5,45.9,156.5z M45.2,162.4c-0.9,0.1-1.8-1.3-1.8-2.3s1-2,1.8-2c0,0,2.5,0,2.5,1.6
			C47.8,161.3,46.1,162.3,45.2,162.4z"/>
	</g>
	<g>
		<path class="st0" d="M121.9,194.7c0-0.7,0-1.1-0.6-2.4l-15.5-32.9c-1.7-3.7-4-8.2-8.3-8.2c-3.6,0-4.5,2-4.5,3.5
			c0,1.2,0.9,2.8,2.4,2.8c0.5,0,1.2-0.5,1.4-0.9c-0.3-0.2-0.6-0.6-0.6-1.2c0-0.8,0.5-1.5,1.7-1.5c2.7,0,5,3.1,4.8,7.5l-0.9,20.7
			c-0.3,6.9-1.8,9.9-4.7,9.9c-1.1,0-1.5-0.9-1.5-1.3c0-0.6,0.4-0.9,0.8-1.1c0-0.5-0.9-0.9-1.6-0.9c-0.8,0-2.4,0.7-2.4,2.6
			c0,1.9,1.6,3.2,4.2,3.2c2.6,0,4.6-1.6,5.6-3.7c1.1,2.3,1.7,3.4,4.9,3.4c2.6,0,3.9-1.7,3.9-3c0-1.1-0.8-2.3-1.8-2.3
			c-0.7,0-1,0.2-1.3,0.5c0,0,0.4,0.5,0.4,1c0,0.8-0.6,1.4-1.4,1.4c-1.7,0-3.3-1.5-3.1-7l0.9-22.6l16.3,34.3
			C121.5,196,121.9,195.3,121.9,194.7z M140.1,184.7l-0.7-24c-0.2-6.3-2-9.5-5.7-9.5c-2.3,0-3.5,1.8-3.5,3.3c0,1.5,1,2.6,1.9,2.6
			c0.8,0,1.4-0.4,1.4-0.4s-0.5-0.7-0.5-1.2c0-0.6,0.6-1.5,1.4-1.5c1.2,0,2.7,1.2,2.9,3.9l-12.3,25.9c-0.2,0.3-0.4,0.6-0.7,0.6
			c-0.2,0-0.4-0.2-0.6-0.6l-10.8-22.8c-0.9-1.8-1.5-3.3-1.5-5c0-1.3,0.8-2,2-2c0.9,0,1.7,0.7,1.7,1.5c0,0.6-0.2,1-0.2,1
			s0.5,0.2,0.8,0.2c1.1,0,2.1-1,2.1-2.5c0-1.8-1.5-3-4.3-3c-2.3,0-4.5,1.5-4.5,3.7c0,2.1,0.9,4.1,1.8,6l12.5,26.3
			c0.3,0.7,0.8,1,1.2,1c0.5,0,1-0.4,1.3-0.9l12-25.3l0.7,22.6c0.1,2.7-0.2,7.4-3.9,7.4c-0.5,0-1.7-0.5-1.7-1.6c0-1,1.5-1.3,1.5-1.3
			c0-0.8-0.7-1.2-1.8-1.2c-1.4,0-2.5,1.5-2.5,3c0,2.2,1.8,3.5,4.4,3.5C137.4,194.4,140.3,192.3,140.1,184.7z"/>
		<path class="st0" d="M212.8,184.8v-8.6c0-0.9-0.1-1.7-0.7-2.8l-7.9-15.1c-2.4-4.7-4.2-7.1-7.6-7.1c-2.4,0-4.1,1.4-4.1,3.5
			c0,1.1,0.8,2.3,1.8,2.3c0.6,0,1.1-0.3,1.4-0.7c-0.2-0.6-0.4-0.7-0.4-1.3c0-0.5,1-1.2,1.5-1.2c2.6,0,3.8,1.7,6.4,6.6l6.8,13.2
			c0.7,1.2,0.8,1.6,0.8,2.9v7.9c0,2.7-0.4,7.5-4.2,7.5c-1.3,0-2.2-0.8-2.2-1.5c0-0.7,0.8-1.3,1.3-1.5c-0.4-0.5-1-0.9-1.6-0.9
			c-1.2,0-2.7,0.9-2.7,2.7c0,1.9,1.7,3.8,4.6,3.8C210.5,194.4,212.8,191.2,212.8,184.8z M238.5,154c0-1.5-1.4-2.8-3.5-2.8
			c-2,0-3.6,0.7-5.4,3.2c-0.8-2.5-2.1-3.2-3.2-3.2c-1.7,0-2.6,1.3-2.6,2.4c0,0.5,0.4,1,0.7,1.2c0.4-0.4,0.9-1,1.4-1
			c0.5,0,1.2,0.4,1.2,1.3c0,1.9-1.3,4.2-2.4,6.1l-6,9.5c-0.2,0.3-0.5,0.7-0.8,0.7c-0.3,0-0.6-0.5-0.7-0.7l-4.3-8.4
			c-0.8-1.5-2.8-5.8-2.8-7.5c0-0.7,0.8-1.2,1.4-1.2c0.9,0,1.6,1.3,1.7,2c1.1,0,2.1-0.9,2.1-1.9c0-1.5-1.4-2.6-3.5-2.6
			c-2,0-4,1-4,3.2c0,1.9,2.2,6.8,3.6,9.3l4.6,8.9c0.6,1.2,0.7,1.5,0.7,2.9v8.7c0,6.4,2.2,10.2,7,10.2c2.6,0,4.2-1.4,4.2-3.3
			c0-1.7-1.1-2.8-2.2-2.8c-0.7,0-1.1,0.3-1.4,0.9c0.4,0.4,1,0.9,1,1.6c0,0.7-0.8,1.1-1.9,1.1c-3.9,0-4.5-5.1-4.5-7.8V176
			c0-1.3,0.1-1.5,0.8-2.6l7.7-12c3.9-6.1,5.6-7.7,7.5-7.7c0.9,0,1.7,1,1.5,2.5C237.3,156.1,238.5,155.2,238.5,154z"/>
		<path class="st0" d="M260.1,175.7c-1.9,1.1-4,2.4-6.1,3.6c-2-1.1-4.1-2.3-6.4-3.5c1.8-4.7,6.8-16.3,6.8-16.3s2,5.2,4.6,13.3
			C259.4,173.7,260.1,175.7,260.1,175.7z M266.5,189.8c0-2.3-2-8.1-2.5-9.5l-8.6-24.5c-1.1-3.2-2.9-4.9-5.6-4.9
			c-2.5,0-4.5,1.7-4.5,3.5s1.2,2.9,2.8,2.9c0.9,0,1.7-0.8,1.7-1.5c-0.5-0.2-1.4-0.4-1.4-1.3c0-0.6,0.6-1.1,1.5-1.1
			c1,0,2.4,1,3.2,3.5c0,0-4.1,9.5-6.6,15.7c-2.3,5.4-4.7,10.6-6.4,13.8c-2.3,4.2-3.8,5-5.4,5c-0.9,0-1.8-1.2-1.8-2.6
			c-1.7,0.2-2.7,1.4-2.7,2.9c0,1.5,1.9,2.8,3.6,2.8c2.2,0,4-1,5.7-3.2c0.4,1.8,2.1,3.2,3.6,3.2c1.5,0,2.9-0.8,2.9-2.2
			c0-0.5-0.4-1.4-0.8-1.7c-0.4,0.6-1.1,1.1-1.8,1.1c-0.8,0-1.2-1.1-1.2-1.9c0-1,0.4-2.4,1-3.9c1.3-3,3.3-7.8,3.3-7.8
			c3.1,1.3,6.9,3.8,7.4,4.2c0.5-0.3,4.2-2.9,6.8-4.4l0.8,2.4c0.6,1.8,2.8,7.7,2.8,9.4c0,1.3-0.8,2.2-2.1,2.2c-1.4,0-2.1-1.1-2.5-2.1
			c-0.8,0.3-1.4,1-1.4,2c0,1.4,1.3,2.8,3.3,2.8C265,194.7,266.5,192.8,266.5,189.8z M282,191.2c0-1.3-1-2.4-2.3-2.4
			c-0.5,0-0.9,0.3-1.3,0.9c0.4,0.6,0.4,1.1,0.4,1.3c0,0.6-0.8,1.1-1.6,1.1c-2.3,0-3.9-2.2-4.8-4.6l-9.2-26.3
			c-0.9-2.6-1.5-4.3-1.5-5.8c0-0.9,1-1.8,2.3-1.8c1.3,0,2.2,0.7,2.2,1.7c0,0.8-0.6,1.1-0.6,1.1c0.1,0.6,0.8,1,1.2,1
			c1.3,0,2.4-1.3,2.4-2.7c0-2.4-2.6-3.6-4.9-3.6c-2.6,0-4.8,1.5-4.8,4.1c0,1.7,1.2,5.2,1.7,6.8l9.7,27.3c0.4,1.2,2.3,5.6,6.6,5.6
			C280.6,194.7,282,192.9,282,191.2z"/>
		<path class="st0" d="M171.3,155.6c-1.1-3.2-2.9-4.8-5.6-4.8c-2.5,0-4.5,1.6-4.5,3.5c0,1.8,1.2,2.9,2.8,2.9c0.9,0,1.7-0.8,1.7-1.6
			c-0.5-0.2-1.4-0.4-1.4-1.2c0-0.6,0.6-1.1,1.5-1.1c1,0,2.4,1,3.2,3.6c0,0-4.1,9.5-6.6,15.7c-2.3,5.4-4.7,10.6-6.4,13.8
			c-2.3,4.2-4,5.3-5.6,5.3h-0.1h0c-3.5,0-4.6-4.5-4.6-7.6l-0.7-23.6c-0.1-4.4,0.9-6.5,2.7-6.5c1.1,0,1.8,0.5,1.8,1.2
			c0,0.6-0.2,1.1-0.5,1.4c0.4,0.3,1.1,0.4,1.5,0.4c1.2,0,2-1.1,2-2.4c0-1.1-0.6-3.4-4.2-3.4c-3.7,0-5.6,2.5-5.4,8.4l0.7,24.8
			c0.2,7.2,3,10.1,7.1,10.1l0-0.1c1.7-0.3,3.2-1.3,4.6-3.2c0.4,1.8,2.1,3.2,3.5,3.2c1.5,0,3-0.8,3-2.3c0-0.5-0.4-1.3-0.8-1.7
			c-0.4,0.6-1.1,1.1-1.8,1.1c-0.8,0-1.3-1.1-1.3-1.9c0-1,0.4-2.4,1.1-3.9c1.3-3,3.3-7.8,3.3-7.8c3.1,1.3,6.9,3.8,7.4,4.2
			c0.5-0.3,4.2-2.9,6.8-4.4l0.8,2.4c0.6,1.8,2.8,7.7,2.8,9.3c0,1.3-0.8,2.2-2.1,2.2c-1.4,0-2.1-1.1-2.5-2c-0.8,0.2-1.4,1-1.4,2
			c0,1.4,1.3,2.8,3.3,2.8c3.2,0,4.7-2,4.7-4.9c0-2.2-2-8.1-2.5-9.5L171.3,155.6z M170,179.1c-2-1.1-4.2-2.3-6.4-3.6
			c1.8-4.6,6.8-16.2,6.8-16.2s2,5.2,4.6,13.2c0.3,1,1,2.9,1,2.9C174.1,176.6,172.1,177.9,170,179.1z"/>
		<path class="st0" d="M198.2,190.7c0-1.2-1-2.4-2.3-2.4c-0.5,0-0.9,0.3-1.3,0.9c0.4,0.6,0.5,1.1,0.5,1.3c0,0.6-0.8,1.1-1.7,1.1
			c-2.3,0-3.9-2.2-4.8-4.6l-9.2-26.3c-0.9-2.6-1.5-4.3-1.5-5.8c0-0.9,1-1.9,2.3-1.9c1.3,0,2.2,0.7,2.2,1.7c0,0.8-0.6,1.1-0.6,1.1
			c0.1,0.6,0.8,1,1.2,1c1.3,0,2.4-1.3,2.4-2.7c0-2.4-2.6-3.6-4.9-3.6c-2.6,0-4.8,1.5-4.8,4.1c0,1.7,1.2,5.2,1.7,6.8l9.7,27.3
			c0.4,1.2,2.3,5.6,6.6,5.6C196.7,194.3,198.2,192.4,198.2,190.7z"/>
	</g>
	<g>
		<path class="st0" d="M116.9,120.3c-1.2-1.1-2.8-1.7-4.9-1.7c-1.5,0-2.8,0.3-4,1c-1.1,0.6-2.1,1.5-2.9,2.5
			c-0.7,1.1-1.3,2.2-1.7,3.6c-0.4,1.3-0.6,2.7-0.6,4.1c0,1.4,0.2,2.7,0.6,4.1c0.4,1.3,1,2.5,1.7,3.5c0.8,1.1,1.7,1.9,2.9,2.5
			s2.5,1,4,1c1,0,1.9-0.2,2.8-0.5c0.9-0.4,1.7-0.9,2.3-1.5c0.7-0.7,1.3-1.4,1.7-2.3c0.4-0.9,0.7-1.9,0.8-3h3.2
			c-0.4,3.2-1.6,5.6-3.5,7.3c-1.9,1.7-4.3,2.6-7.3,2.6c-2,0-3.7-0.4-5.2-1.1c-1.5-0.7-2.8-1.7-3.9-2.9c-1.1-1.3-1.8-2.7-2.4-4.4
			c-0.5-1.7-0.8-3.5-0.8-5.3c0-1.9,0.3-3.6,0.8-5.3c0.5-1.7,1.3-3.1,2.4-4.3c1-1.3,2.3-2.3,3.9-3c1.5-0.7,3.3-1.1,5.2-1.1
			c2.8,0,5.2,0.7,7.1,2.2c1.9,1.5,3.1,3.8,3.5,6.7h-3.2C118.9,122.9,118.1,121.4,116.9,120.3z"/>
		<path class="st0" d="M166.4,128.5c-0.2,0.4-0.6,0.7-1.2,0.8s-1.1,0.3-1.5,0.4c-1.3,0.2-2.7,0.4-4.2,0.6c-1.4,0.2-2.7,0.5-3.9,0.8
			c-1.2,0.4-2.1,0.9-2.9,1.6c-0.8,0.7-1.1,1.7-1.1,2.9c0,0.8,0.2,1.5,0.5,2.1c0.3,0.6,0.7,1.2,1.3,1.6c0.5,0.5,1.1,0.8,1.8,1
			c0.7,0.2,1.4,0.4,2.2,0.4c1.2,0,2.4-0.2,3.5-0.5c1.1-0.4,2.1-0.9,2.9-1.6s1.5-1.6,2-2.6c0.5-1,0.7-2.1,0.7-3.4L166.4,128.5
			L166.4,128.5z M150.5,120.7c0.5-1.1,1.3-2,2.2-2.7c0.9-0.7,2-1.3,3.3-1.6c1.3-0.4,2.6-0.5,4.1-0.5c1.1,0,2.3,0.1,3.5,0.3
			c1.1,0.2,2.1,0.6,3.1,1.2c0.9,0.6,1.7,1.4,2.2,2.5c0.6,1.1,0.8,2.5,0.8,4.3V138c0,1.3,0.6,1.9,1.9,1.9c0.4,0,0.7-0.1,1-0.2v2.7
			c-0.4,0.1-0.7,0.1-1,0.2c-0.3,0-0.7,0.1-1.1,0.1c-0.8,0-1.5-0.1-2-0.3c-0.5-0.2-0.9-0.5-1.2-1c-0.3-0.4-0.4-0.9-0.5-1.4
			c-0.1-0.6-0.1-1.2-0.1-1.8h-0.1c-0.6,0.8-1.1,1.6-1.7,2.2c-0.6,0.7-1.3,1.2-2,1.7c-0.7,0.4-1.5,0.8-2.5,1c-0.9,0.2-2,0.3-3.3,0.3
			c-1.2,0-2.3-0.1-3.4-0.4c-1.1-0.3-2-0.7-2.8-1.4s-1.4-1.4-1.9-2.4c-0.5-1-0.7-2.1-0.7-3.4c0-1.8,0.4-3.2,1.2-4.2
			c0.8-1,1.9-1.8,3.2-2.3c1.3-0.5,2.8-0.9,4.5-1.1c1.7-0.2,3.4-0.4,5.1-0.6c0.7-0.1,1.3-0.2,1.8-0.2c0.5-0.1,0.9-0.3,1.3-0.5
			c0.4-0.2,0.6-0.6,0.8-1c0.2-0.4,0.3-1,0.3-1.7c0-1.1-0.2-2-0.5-2.6c-0.4-0.7-0.8-1.2-1.5-1.6s-1.3-0.7-2.1-0.8
			c-0.8-0.2-1.7-0.2-2.7-0.2c-2,0-3.6,0.5-4.9,1.4c-1.3,1-2,2.5-2,4.6h-3.2C149.7,123.2,150,121.8,150.5,120.7z"/>
		<path class="st0" d="M213.5,121.8c-0.4-0.7-0.9-1.3-1.5-1.8c-0.6-0.5-1.3-0.8-2.1-1c-0.8-0.2-1.7-0.4-2.6-0.4
			c-0.7,0-1.4,0.1-2.1,0.2c-0.7,0.1-1.4,0.4-2,0.7c-0.6,0.4-1.1,0.8-1.4,1.4c-0.4,0.6-0.6,1.3-0.6,2.1c0,0.7,0.2,1.3,0.5,1.8
			c0.4,0.5,0.8,0.9,1.3,1.2c0.5,0.4,1.1,0.6,1.7,0.8c0.6,0.2,1.2,0.4,1.8,0.5l4.2,1c0.9,0.1,1.8,0.4,2.7,0.7
			c0.9,0.4,1.7,0.8,2.4,1.4c0.7,0.6,1.3,1.3,1.7,2.1c0.4,0.8,0.7,1.8,0.7,2.9c0,1.4-0.3,2.6-1,3.6c-0.6,1-1.4,1.8-2.4,2.4
			c-1,0.6-2.1,1.1-3.3,1.3c-1.3,0.2-2.5,0.4-3.7,0.4c-3,0-5.5-0.7-7.4-2.1c-1.9-1.4-3-3.7-3.2-6.9h3.2c0.1,2.1,0.9,3.8,2.3,4.8
			s3.2,1.6,5.3,1.6c0.8,0,1.6-0.1,2.4-0.2s1.6-0.5,2.3-0.9c0.7-0.4,1.3-0.9,1.7-1.5c0.4-0.6,0.7-1.4,0.7-2.3c0-0.8-0.2-1.4-0.5-1.9
			c-0.3-0.5-0.7-1-1.3-1.3c-0.5-0.4-1.1-0.6-1.8-0.9c-0.7-0.2-1.4-0.4-2.1-0.6l-4.1-0.9c-1-0.3-2-0.6-2.9-0.9
			c-0.9-0.4-1.6-0.8-2.3-1.3c-0.7-0.5-1.2-1.2-1.5-1.9c-0.4-0.8-0.6-1.7-0.6-2.8c0-1.3,0.3-2.4,0.9-3.4c0.6-1,1.3-1.7,2.3-2.3
			c0.9-0.6,2-1,3.1-1.3c1.2-0.2,2.3-0.4,3.5-0.4c1.3,0,2.5,0.2,3.6,0.5c1.1,0.3,2.1,0.9,3,1.6c0.8,0.7,1.5,1.6,2,2.6
			c0.5,1,0.8,2.3,0.9,3.7h-3.2C214.1,123.3,213.9,122.5,213.5,121.8z"/>
		<path class="st0" d="M262.1,128.5c-0.2,0.4-0.6,0.7-1.2,0.8c-0.6,0.2-1.1,0.3-1.5,0.4c-1.3,0.2-2.7,0.4-4.2,0.6
			c-1.4,0.2-2.7,0.5-3.9,0.8c-1.2,0.4-2.1,0.9-2.9,1.6c-0.8,0.7-1.1,1.7-1.1,2.9c0,0.8,0.2,1.5,0.5,2.1c0.3,0.6,0.7,1.2,1.3,1.6
			c0.5,0.5,1.2,0.8,1.9,1c0.7,0.2,1.4,0.4,2.2,0.4c1.2,0,2.4-0.2,3.5-0.5c1.1-0.4,2.1-0.9,2.9-1.6c0.8-0.7,1.5-1.6,2-2.6
			c0.5-1,0.7-2.1,0.7-3.4v-4.1H262.1z M246.3,120.7c0.5-1.1,1.3-2,2.2-2.7c0.9-0.7,2-1.3,3.3-1.6c1.3-0.4,2.6-0.5,4.2-0.5
			c1.1,0,2.3,0.1,3.4,0.3c1.1,0.2,2.2,0.6,3.1,1.2c0.9,0.6,1.7,1.4,2.2,2.5c0.6,1.1,0.8,2.5,0.8,4.3V138c0,1.3,0.6,1.9,1.9,1.9
			c0.4,0,0.7-0.1,1-0.2v2.7c-0.4,0.1-0.7,0.1-1,0.2c-0.3,0-0.7,0.1-1.1,0.1c-0.8,0-1.5-0.1-2-0.3c-0.5-0.2-0.9-0.5-1.2-1
			c-0.3-0.4-0.4-0.9-0.5-1.4c-0.1-0.6-0.1-1.2-0.1-1.8h-0.1c-0.6,0.8-1.1,1.6-1.7,2.2c-0.6,0.7-1.3,1.2-2,1.7
			c-0.7,0.4-1.5,0.8-2.5,1c-0.9,0.2-2,0.3-3.3,0.3c-1.2,0-2.3-0.1-3.4-0.4c-1.1-0.3-2-0.7-2.8-1.4s-1.4-1.4-1.9-2.4
			c-0.4-1-0.7-2.1-0.7-3.4c0-1.8,0.4-3.2,1.2-4.2c0.8-1,1.9-1.8,3.2-2.3c1.3-0.5,2.8-0.9,4.5-1.1c1.7-0.2,3.4-0.4,5.1-0.6
			c0.7-0.1,1.3-0.2,1.8-0.2c0.5-0.1,0.9-0.3,1.3-0.5c0.4-0.2,0.6-0.6,0.8-1s0.3-1,0.3-1.7c0-1.1-0.2-2-0.5-2.6
			c-0.4-0.7-0.8-1.2-1.5-1.6s-1.3-0.7-2.1-0.8c-0.8-0.2-1.7-0.2-2.6-0.2c-2,0-3.7,0.5-4.9,1.4c-1.3,1-1.9,2.5-2,4.6h-3.2
			C245.4,123.2,245.7,121.8,246.3,120.7z"/>
	</g>
	
		<rect x="132.1" y="126.1" transform="matrix(0.7071 -0.7071 0.7071 0.7071 -51.8672 133.8098)" class="st0" width="6.9" height="6.9"/>
	
		<rect x="181.1" y="126.1" transform="matrix(0.7071 -0.7071 0.7071 0.7071 -37.5162 168.4563)" class="st0" width="6.9" height="6.9"/>
	
		<rect x="227.8" y="126.1" transform="matrix(0.7071 -0.7071 0.7071 0.7071 -23.8341 201.4877)" class="st0" width="6.9" height="6.9"/>
</g>
</svg>
