<svg fill="none" height="512" viewBox="0 0 24 24" width="512" xmlns="http://www.w3.org/2000/svg"><g clip-rule="evenodd" fill="rgb(0,0,0)" fill-rule="evenodd"><path d="m10.3123 9.60957c-.15-.12007-.35566-.14348-.52889-.06022-.17324.08326-.28341.25845-.28341.45065v8c0 .1922.11017.3674.28341.4507.17323.0832.37889.0598.52889-.0603l5-4c.1187-.0948.1877-.2385.1877-.3904s-.069-.2955-.1877-.3904zm3.8873 4.39043-3.6996 2.9597v-5.9194z"/><path d="m3.64645 2.64645c.19526-.19527.51184-.19527.7071 0l2.64645 2.64644 2.64645-2.64644c.19526-.19527.51185-.19527.70715 0 .1952.19526.1952.51184 0 .7071l-2.14649 2.14645h11.79289c1.3807 0 2.5 1.11929 2.5 2.5v12c0 1.3807-1.1193 2.5-2.5 2.5h-16c-1.38071 0-2.5-1.1193-2.5-2.5v-12c0-1.38071 1.11929-2.5 2.5-2.5h1.79289l-2.14644-2.14645c-.19527-.19526-.19527-.51184 0-.7071zm.35355 3.85355c-.82843 0-1.5.67157-1.5 1.5v12c0 .8284.67157 1.5 1.5 1.5h16c.8284 0 1.5-.6716 1.5-1.5v-12c0-.82843-.6716-1.5-1.5-1.5z"/></g></svg>